<svg width="301" height="290" viewBox="0 0 301 290" fill="none" xmlns="http://www.w3.org/2000/svg">
<path fill-rule="evenodd" clip-rule="evenodd" d="M96 0L121 14L145 28V56V84L121 98L96 113L72 98L47 84V56V28L72 14L96 0Z" fill="black"/>
<path fill-rule="evenodd" clip-rule="evenodd" d="M150 88L175 103L199 117V145V173L175 187L150 201L126 187L101 173V145V117L126 103L150 88Z" fill="black"/>
<path fill-rule="evenodd" clip-rule="evenodd" d="M204 177L229 191L253 205V233V262L229 276L204 290L180 276L155 262V233V205L180 191L204 177Z" fill="black"/>
<path fill-rule="evenodd" clip-rule="evenodd" d="M252 29L277 43L301 58V86V114L277 128L252 142L228 128L203 114V86V58L228 43L252 29Z" fill="black"/>
<path fill-rule="evenodd" clip-rule="evenodd" d="M49 148L74 162L98 176V204V232L74 247L49 261L25 247L0 232V204V176L25 162L49 148Z" fill="black"/>
</svg>
